<?xml version="1.0" encoding="utf-8"?>
<!DOCTYPE svg PUBLIC "-//W3C//DTD SVG 1.1//EN" "http://www.w3.org/Graphics/SVG/1.1/DTD/svg11.dtd">
<svg version="1.1" id="Layer_1" xmlns="http://www.w3.org/2000/svg" xmlns:xlink="http://www.w3.org/1999/xlink" x="0px" y="0px"
	 width="160px" height="48px" viewBox="0 0 160 48" enable-background="new 0 0 160 48" xml:space="preserve">
<g>
	<path fill="#888888" d="M23.957,0c6.713,0,12.429,2.344,17.143,7.029c2.256,2.256,3.971,4.836,5.142,7.735
		C47.413,17.665,48,20.743,48,24c0,3.286-0.58,6.365-1.735,9.235c-1.157,2.871-2.865,5.408-5.121,7.607
		c-2.342,2.313-5,4.086-7.972,5.314C30.201,47.386,27.128,48,23.958,48c-3.171,0-6.208-0.605-9.108-1.821
		c-2.899-1.214-5.5-2.971-7.8-5.271c-2.3-2.3-4.05-4.893-5.25-7.779C0.6,30.242,0,27.201,0,24c0-3.172,0.607-6.221,1.821-9.15
		C3.035,11.921,4.8,9.3,7.114,6.985C11.685,2.33,17.299,0,23.957,0z M24.043,4.329c-5.485,0-10.101,1.915-13.843,5.743
		c-1.887,1.915-3.336,4.064-4.351,6.45c-1.016,2.386-1.521,4.879-1.521,7.479c0,2.571,0.506,5.05,1.521,7.435
		c1.015,2.389,2.464,4.517,4.351,6.388c1.885,1.872,4.013,3.299,6.386,4.286c2.371,0.985,4.857,1.479,7.457,1.479
		c2.571,0,5.062-0.499,7.479-1.499c2.415-1.002,4.591-2.443,6.536-4.329c3.742-3.656,5.612-8.242,5.612-13.758
		c0-2.657-0.485-5.171-1.457-7.543c-0.97-2.372-2.386-4.485-4.241-6.344C34.114,6.258,29.472,4.329,24.043,4.329z M23.743,20.016
		l-3.215,1.672c-0.344-0.713-0.765-1.214-1.264-1.5c-0.5-0.285-0.964-0.428-1.393-0.428c-2.142,0-3.215,1.414-3.215,4.243
		c0,1.285,0.271,2.312,0.813,3.085c0.543,0.772,1.344,1.157,2.401,1.157c1.4,0,2.385-0.686,2.958-2.057l2.957,1.5
		c-0.628,1.172-1.5,2.094-2.614,2.764c-1.113,0.673-2.343,1.008-3.686,1.008c-2.143,0-3.873-0.656-5.187-1.971
		s-1.971-3.144-1.971-5.486c0-2.286,0.664-4.099,1.992-5.442c1.329-1.343,3.007-2.015,5.037-2.015
		C20.328,16.544,22.457,17.701,23.743,20.016z M37.585,20.016l-3.172,1.672c-0.343-0.713-0.765-1.214-1.264-1.5
		c-0.502-0.285-0.981-0.428-1.436-0.428c-2.143,0-3.215,1.414-3.215,4.243c0,1.285,0.272,2.312,0.814,3.085
		c0.543,0.772,1.342,1.157,2.401,1.157c1.398,0,2.385-0.686,2.956-2.057l3,1.5c-0.656,1.172-1.542,2.094-2.656,2.764
		c-1.114,0.673-2.328,1.008-3.643,1.008c-2.171,0-3.907-0.656-5.206-1.971c-1.301-1.314-1.951-3.144-1.951-5.486
		c0-2.286,0.664-4.099,1.993-5.442c1.328-1.343,3.006-2.015,5.035-2.015C34.213,16.544,36.329,17.701,37.585,20.016z"/>
</g>
<g>
	<g>
		<path fill="#888888" d="M79.958,0c6.742,0,12.427,2.313,17.056,6.942C101.67,11.6,104,17.286,104,24
			c0,6.743-2.287,12.357-6.858,16.842C92.284,45.613,86.557,48,79.958,48c-6.487,0-12.115-2.358-16.886-7.072
			C58.358,36.213,56,30.571,56,24c0-6.57,2.358-12.256,7.072-17.057C67.701,2.313,73.328,0,79.958,0z M80.042,4.329
			c-5.457,0-10.071,1.915-13.842,5.743c-3.915,4-5.872,8.644-5.872,13.929c0,5.314,1.942,9.915,5.828,13.798
			c3.886,3.887,8.514,5.828,13.885,5.828c5.342,0,10-1.955,13.972-5.871c3.772-3.628,5.657-8.213,5.657-13.757
			c0-5.457-1.914-10.099-5.742-13.928C90.1,6.243,85.471,4.329,80.042,4.329z M86.472,18.043v9.814h-2.742v11.655h-7.458V27.857
			H73.53v-9.814c0-0.429,0.15-0.793,0.449-1.093c0.301-0.299,0.665-0.45,1.093-0.45h9.858c0.399,0,0.758,0.15,1.071,0.45
			C86.313,17.25,86.472,17.614,86.472,18.043z M76.656,11.872c0-2.256,1.114-3.386,3.344-3.386s3.343,1.128,3.343,3.386
			c0,2.228-1.115,3.343-3.343,3.343S76.656,14.1,76.656,11.872z"/>
	</g>
</g>
<g>
	<g>
		<path fill="#888888" d="M135.956,0c6.743,0,12.429,2.313,17.058,6.942C157.67,11.571,160,17.257,160,24
			c0,6.744-2.286,12.357-6.858,16.844C148.285,45.615,142.556,48,135.956,48c-6.515,0-12.142-2.371-16.884-7.113
			C114.358,36.172,112,30.543,112,24c0-6.572,2.358-12.257,7.072-17.058C123.699,2.314,129.328,0,135.956,0z M117.4,17.529
			c-0.715,1.971-1.072,4.128-1.072,6.472c0,5.314,1.943,9.915,5.828,13.8c3.914,3.857,8.543,5.786,13.885,5.786
			c5.4,0,10.057-1.956,13.973-5.872c1.4-1.342,2.5-2.742,3.299-4.201l-9.042-4.027c-0.316,1.514-1.079,2.749-2.292,3.705
			c-1.218,0.958-2.652,1.51-4.309,1.65v3.687h-2.786v-3.687c-2.657-0.027-5.086-0.983-7.285-2.87l3.3-3.343
			c1.57,1.457,3.357,2.185,5.357,2.185c0.828,0,1.535-0.185,2.122-0.558c0.585-0.37,0.879-0.984,0.879-1.842
			c0-0.602-0.214-1.086-0.644-1.458l-2.312-0.985l-2.829-1.287l-3.814-1.671L117.4,17.529z M136.043,4.285
			c-5.457,0-10.071,1.929-13.844,5.786c-0.943,0.943-1.828,2.015-2.656,3.215l9.172,4.114c0.398-1.257,1.156-2.265,2.271-3.021
			c1.113-0.757,2.414-1.178,3.9-1.265V9.428h2.786v3.686c2.2,0.115,4.2,0.857,6,2.229l-3.129,3.215
			c-1.345-0.943-2.714-1.414-4.114-1.414c-0.744,0-1.408,0.143-1.992,0.428c-0.586,0.286-0.879,0.772-0.879,1.458
			c0,0.2,0.07,0.399,0.213,0.6l3.043,1.373l2.1,0.943l3.857,1.714l12.299,5.484c0.401-1.686,0.602-3.398,0.602-5.142
			c0-5.515-1.915-10.157-5.742-13.93C146.129,6.214,141.498,4.285,136.043,4.285z"/>
	</g>
</g>
</svg>