<?xml version="1.0" encoding="utf-8"?>
<!-- Generator: Adobe Illustrator 16.0.0, SVG Export Plug-In . SVG Version: 6.00 Build 0)  -->
<!DOCTYPE svg PUBLIC "-//W3C//DTD SVG 1.1//EN" "http://www.w3.org/Graphics/SVG/1.1/DTD/svg11.dtd">
<svg version="1.1" id="Layer_1" xmlns="http://www.w3.org/2000/svg" xmlns:xlink="http://www.w3.org/1999/xlink" x="0px" y="0px"
	 width="285px" height="285px" viewBox="0 0 285 285" enable-background="new 0 0 285 285" xml:space="preserve">
<radialGradient id="SVGID_1_" cx="142.5" cy="142.5" r="201.073" gradientUnits="userSpaceOnUse">
	<stop  offset="0" style="stop-color:#CCCCCC"/>
	<stop  offset="1" style="stop-color:#4D4D4D"/>
</radialGradient>
<rect fill="url(#SVGID_1_)" width="285" height="285"/>
<g>
	<path fill="#FFFFFF" d="M129.07,159.586v-5.203c0-4.5,0.96-8.413,2.883-11.742c1.922-3.328,5.438-6.866,10.547-10.617
		c4.922-3.516,8.167-6.374,9.738-8.578c1.57-2.203,2.355-4.664,2.355-7.383c0-3.047-1.125-5.367-3.375-6.961
		c-2.25-1.593-5.391-2.391-9.422-2.391c-7.031,0-15.047,2.297-24.047,6.891l-7.664-15.398c10.452-5.859,21.539-8.789,33.258-8.789
		c9.656,0,17.332,2.32,23.027,6.961s8.543,10.828,8.543,18.562c0,5.157-1.172,9.609-3.516,13.359
		c-2.344,3.751-6.797,7.97-13.359,12.656c-4.5,3.329-7.348,5.86-8.543,7.594c-1.195,1.734-1.793,4.008-1.793,6.82v4.219H129.07z
		 M126.82,183.633c0-3.938,1.055-6.914,3.164-8.93c2.109-2.015,5.179-3.023,9.211-3.023c3.891,0,6.901,1.031,9.035,3.094
		c2.133,2.063,3.199,5.017,3.199,8.859c0,3.703-1.079,6.621-3.234,8.754c-2.156,2.133-5.157,3.199-9,3.199
		c-3.938,0-6.985-1.044-9.141-3.129C127.898,190.372,126.82,187.43,126.82,183.633z"/>
</g>
</svg>
