<?xml version="1.0" encoding="utf-8"?>
<!DOCTYPE svg PUBLIC "-//W3C//DTD SVG 1.1//EN" "http://www.w3.org/Graphics/SVG/1.1/DTD/svg11.dtd">
<svg version="1.1" id="Layer_1" xmlns="http://www.w3.org/2000/svg" xmlns:xlink="http://www.w3.org/1999/xlink" x="0px" y="0px"
	 width="167px" height="70px" viewBox="0 0 167 70" enable-background="new 0 0 167 70" xml:space="preserve">
<g>
	<path fill="#555555" d="M28.904,3.241c0.175-0.438,0.263-0.964,0.35-1.401C28.378,0.876,26.539,0,24.962,0
		c-2.366,0-1.927,1.401-2.19,2.453c0,0.088-0.087,0.176-0.087,0.263C7.794,3.417,6.043,21.201,6.043,21.201
		c0.438,2.804,5.167,3.154,6.043,3.154c0.262,0,0.35,0,0.35-0.086c1.138-5.87,2.628-13.055,8.846-15.595
		c-2.364,11.74-6.394,35.395-7.97,49.587c0.438,0.612,3.854,2.365,5.692,2.365c0.79,0,1.314-0.35,1.402-1.052
		c1.051-9.287,4.905-37.497,7.532-51.689c7.533,0.876,11.649,7.622,11.649,17.61c0,23.917-8.846,38.986-20.145,38.986
		c-6.832,0-10.335-4.73-11.649-10.688C7.62,53.09,9.634,53.879,9.546,53.09c-0.175-1.75-1.576-4.904-2.802-6.131
		C5.08,45.294,1.226,48.097,0,49.851C0.437,59.225,10.335,70,22.072,70c14.364,0,24.612-14.982,24.612-40.125
		C46.684,16.471,39.677,5.869,28.904,3.241z"/>
	<path fill="#555555" d="M163.671,12.09c-5.517,0-11.123,32.415-11.998,37.585h-0.613c-0.438-8.937,0.524-21.289,2.012-30.489
		c0.266-1.577-3.589-2.803-4.728-2.803c-1.227,0-1.839,0.701-2.015,1.577c-1.663,9.375-4.468,19.887-7.62,28.65h-0.438
		c-0.088-0.964-0.264-2.541-0.264-4.207c0-7.797,0.612-13.053,2.015-20.238c0.119-0.683-0.241-1.313-0.841-1.852
		c1.137-3.147,2.534-5.508,2.534-6.208c0-1.577-2.102-2.015-3.328-2.015c-5.518,0-11.122,32.415-12,37.585h-0.613
		c-0.437-8.937,0.526-21.289,2.015-30.489c0.263-1.577-3.59-2.803-4.729-2.803c-1.225,0-1.839,0.701-2.014,1.577
		c-1.664,9.375-4.468,19.887-7.62,28.65h-0.439c-0.086-0.964-0.261-2.541-0.261-4.207c0-7.797,0.612-13.053,2.015-20.238
		c0.35-2.014-3.418-3.591-5.431-3.591c-2.716,0-3.679,16.121-3.679,22.34c0,1.847,0.024,4.333,0.161,7.004
		c-0.044,0.003-0.074,0.005-0.074,0.005c-0.613,5.257-1.84,10.951-6.395,10.951c-2.977,0-3.679-2.715-3.679-6.746
		c0-6.921,2.191-16.031,4.905-25.844c0.526-2.015-2.891-2.102-3.679-2.365c0,0,0.087-0.526,0.087-0.963
		c0-2.629-2.627-6.483-8.583-6.483c-7.74,0-13.719,8.556-16.335,19.397c-0.744,1.023-1.763,1.891-3.197,1.891
		c-1.401,0-2.628-1.4-2.628-2.627c0-6.395,3.766-11.564,3.766-14.806c0-1.752-0.963-2.628-2.803-3.066
		c-2.54-0.613-4.818,0.087-5.43,2.191c-1.227,4.38-2.979,12.266-5.255,17.872l-0.614-0.264c0.264-5.167,1.402-11.651,1.664-16.382
		c0,0-2.714-2.015-4.992-2.015c-2.979,0-3.241,8.411-3.504,17.084c-0.701,19.01-1.664,22.252-1.664,24.792
		c0,1.929,5.693,4.381,7.708,3.155c0.175-14.369,4.379-24.443,5.956-29.173c0.35,3.853,1.664,7.271,6.832,7.271
		c1.207,0,2.28-0.357,3.215-0.93c-0.328,2.373-0.5,4.804-0.5,7.236c0,10.689,4.905,17.348,11.387,17.348
		c4.292,0,7.882-3.329,9.285-6.395h0.438c0.175,2.102,2.277,5.782,6.308,5.782c4.179,0,7.149-3.904,8.782-7.959
		c0.893,4.515,2.464,8.045,5.231,8.045c0.787,0,2.014-0.175,2.451-0.963c0.352-7.885,2.277-16.996,4.906-23.918h0.438
		c0,1.576,0.701,16.733,0.875,19.713c0.264,4.293,1.312,9.023,6.044,9.023c1.664,0,2.451-1.227,2.451-1.227
		c0-5.663,0.754-11.944,1.961-18.318c0.481,7.419,1.919,15.689,6.157,15.689c0.787,0,2.013-0.175,2.453-0.963
		c0.349-7.885,2.275-16.996,4.904-23.918h0.437c0,1.576,0.7,16.733,0.877,19.713c0.262,4.293,1.312,9.023,6.044,9.023
		c1.662,0,2.451-1.227,2.451-1.227c0-14.631,4.992-33.378,9.986-47.222c1.138-3.154,2.539-5.52,2.539-6.22
		C167,12.528,164.896,12.09,163.671,12.09z M81.106,59.487c-2.278,0-3.153-2.103-3.153-7.535c0-9.198,3.942-30.138,10.335-30.138
		c1.664,0,1.664,2.103,1.664,2.891c0,3.155-1.138,6.221-2.977,8.761c1.226,1.401,4.028,1.928,4.028,1.928
		C91.004,38.548,86.274,59.487,81.106,59.487z"/>
</g>
</svg>
